<?xml version="1.0" encoding="iso-8859-1"?>
<!-- Uploaded to: SVG Repo, www.svgrepo.com, Generator: SVG Repo Mixer Tools -->
<svg xmlns="http://www.w3.org/2000/svg" xmlns:xlink="http://www.w3.org/1999/xlink" version="1.1" id="Layer_1"  viewBox="0 0 502 502" xml:space="preserve" width="512" height="512">
<g>
	<g>
		<path style="fill:#CCD7EB;" d="M413,492H89c-43.63,0-79-35.37-79-79V89c0-43.63,35.37-79,79-79h324c43.63,0,79,35.37,79,79v324    C492,456.63,456.63,492,413,492z"/>
		<path d="M413,502H89c-49.075,0-89-39.925-89-89V89C0,39.925,39.925,0,89,0h324c49.075,0,89,39.925,89,89v324    C502,462.075,462.075,502,413,502z M89,20c-38.047,0-69,30.953-69,69v324c0,38.047,30.953,69,69,69h324c38.047,0,69-30.953,69-69    V89c0-38.047-30.953-69-69-69H89z"/>
	</g>
	<g>
		<path d="M423.167,56H403c-5.523,0-10-4.477-10-10s4.477-10,10-10h20.167c5.523,0,10,4.477,10,10S428.689,56,423.167,56z"/>
	</g>
	<g>
		<path d="M361,56H78.833c-5.523,0-10-4.477-10-10s4.477-10,10-10H361c5.523,0,10,4.477,10,10S366.523,56,361,56z"/>
	</g>
	<g>
		<g>
			<g>
				<path style="fill:#4D93E8;" d="M301.192,403c-6.093,0-12.186-2.324-16.835-6.973L163.565,275.235      c-9.298-9.298-9.298-24.372,0-33.67l120.792-120.792c9.298-9.298,24.372-9.298,33.67,0c9.298,9.298,9.298,24.372,0,33.67      L214.07,258.4l103.956,103.957c9.298,9.298,9.298,24.372,0,33.67C313.378,400.676,307.285,403,301.192,403z"/>
				<path d="M301.191,413c-9.031,0-17.521-3.517-23.906-9.902L156.494,282.306c-13.182-13.182-13.182-34.63,0-47.813      l120.791-120.792c13.183-13.183,34.631-13.182,47.813,0c13.182,13.182,13.182,34.63,0,47.812L228.212,258.4l96.885,96.885      c13.182,13.182,13.182,34.631,0,47.813C318.712,409.483,310.222,413,301.191,413z M301.192,123.807      c-3.537,0-7.072,1.346-9.764,4.038L170.636,248.636c-5.384,5.384-5.384,14.144,0,19.528l120.792,120.792      c2.608,2.608,6.075,4.044,9.764,4.044s7.156-1.436,9.764-4.044c5.384-5.384,5.384-14.144,0-19.528L207,265.471      c-3.905-3.905-3.905-10.237,0-14.143l103.956-103.957c5.384-5.383,5.384-14.144,0-19.528      C308.264,125.153,304.728,123.807,301.192,123.807z"/>
			</g>
		</g>
	</g>
</g>















</svg>