<?xml version="1.0" encoding="iso-8859-1"?>
<!-- Uploaded to: SVG Repo, www.svgrepo.com, Generator: SVG Repo Mixer Tools -->
<svg height="800px" width="800px" version="1.1" id="Layer_1" xmlns="http://www.w3.org/2000/svg" xmlns:xlink="http://www.w3.org/1999/xlink" 
	 viewBox="0 0 322.577 322.577" xml:space="preserve">
<g>
	<g>
		<g>
			<path style="fill:#4EFFBB;" d="M261.839,128.844h-6.348v-97.33c0-4.53-3.68-8.167-8.167-8.167H98.597
				c-4.53,0-8.167,3.64-8.167,8.167v97.33h-6.348c-4.53,0-8.17,3.64-8.17,8.17V314.41c0,4.489,3.64,8.167,8.17,8.167h177.759
				c4.489,0,8.17-3.68,8.17-8.167V137.014C270.008,132.484,266.328,128.844,261.839,128.844z"/>
		</g>
		<g id="XMLID_11_">
			<g>
				<g>
					<path style="fill:#302C58;" d="M149.737,191.752c9.744,0,17.711,7.926,17.711,17.67s-7.967,17.67-17.711,17.67
						c-9.785,0-17.711-7.926-17.711-17.67S139.952,191.752,149.737,191.752z"/>
				</g>
				<g>
					<path style="fill:#302C58;" d="M215.769,16.296V105.5h-3.115l-29.033-41.164c-1.537-2.184-4.043-3.477-6.711-3.477
						c-2.627,0-5.136,1.293-6.673,3.477l-14.356,20.379l-18.358-31.742c-1.456-2.506-4.124-4.043-7.076-4.043
						c-2.912,0-5.62,1.537-7.076,4.043L93.005,105.5H83.42V16.296H215.769z"/>
				</g>
				<g>
					<path style="fill:#222051;" d="M183.621,64.336l29.033,41.164h3.115V16.296H83.42V105.5h9.585l30.367-52.527
						c1.456-2.506,4.165-4.043,7.076-4.043c2.952,0,5.62,1.537,7.076,4.043l18.358,31.742l14.356-20.379
						c1.537-2.184,4.043-3.477,6.673-3.477C179.579,60.859,182.084,62.152,183.621,64.336z M246.664,113.667v177.397
						c0,4.489-3.68,8.17-8.167,8.17H60.735c-4.53,0-8.17-3.68-8.17-8.17V113.667c0-4.53,3.64-8.17,8.17-8.17h6.348V8.17
						c0-4.53,3.64-8.17,8.17-8.17h148.726c4.489,0,8.17,3.64,8.17,8.17v97.33h6.348C242.984,105.5,246.664,109.14,246.664,113.667z
						 M230.287,282.897v-161.06H68.902v161.06H230.287z M192.641,105.5l-15.73-22.282l-12.009,17.064l3.034,5.217
						C167.935,105.5,192.641,105.5,192.641,105.5z M149.049,105.5l-18.601-32.107L111.887,105.5H149.049z"/>
				</g>
				<g>
					<path style="fill:#302C58;" d="M68.902,121.836h161.382v161.06H68.902V121.836z M149.737,269.956
						c33.441,0,60.615-27.174,60.615-60.534s-27.174-60.493-60.615-60.493s-60.656,27.133-60.656,60.493
						S116.296,269.956,149.737,269.956z M193.328,130.572c-4.53,0-8.167,3.64-8.167,8.129c0,4.53,3.64,8.17,8.167,8.17h21.107
						c4.53,0,8.21-3.64,8.21-8.17c0-4.489-3.68-8.129-8.21-8.129H193.328z"/>
				</g>
				<g>
					<path style="fill:#222051;" d="M210.352,209.422c0,33.36-27.174,60.534-60.615,60.534s-60.656-27.174-60.656-60.534
						s27.215-60.493,60.656-60.493S210.352,176.063,210.352,209.422z M194.016,209.422c0-24.344-19.854-44.198-44.279-44.198
						s-44.279,19.854-44.279,44.198c0,24.384,19.854,44.198,44.279,44.198C174.158,253.62,194.016,233.807,194.016,209.422z"/>
				</g>
				<g>
					<path style="fill:#222051;" d="M149.737,175.416c18.764,0,34.047,15.283,34.047,34.007c0,18.764-15.283,34.007-34.047,34.007
						c-18.804,0-34.088-15.246-34.088-34.007C115.649,190.699,130.932,175.416,149.737,175.416z M167.448,209.422
						c0-9.744-7.967-17.67-17.711-17.67c-9.785,0-17.711,7.926-17.711,17.67s7.926,17.67,17.711,17.67
						C159.481,227.093,167.448,219.167,167.448,209.422z"/>
				</g>
			</g>
		</g>
	</g>
</g>
</svg>